<svg id="Group_2403" data-name="Group 2403" xmlns="http://www.w3.org/2000/svg" width="67.454" height="98.089" viewBox="0 0 67.454 98.089">
  <path id="Path_5211" data-name="Path 5211" d="M576.745,767.572l4.846,52.737h-3.363l-10.723-43.714Z" transform="translate(-547.864 -741.006)" fill="#3088f4" fill-rule="evenodd"/>
  <path id="Path_5212" data-name="Path 5212" d="M979.339,767.572l-4.846,52.737h3.363l10.723-43.714Z" transform="translate(-940.766 -741.006)" fill="#3088f4" fill-rule="evenodd"/>
  <path id="Path_5213" data-name="Path 5213" d="M624.048,0l-3.037,9.03-9.527.1,7.65,5.679-2.85,9.091,7.765-5.52,7.765,5.52-2.85-9.091,7.649-5.679-9.526-.1Z" transform="translate(-590.321 0.001)" fill="#3088f4"/>
  <path id="Path_5214" data-name="Path 5214" d="M912.151,628.39l2.158,23.479,2.157-23.479-2.157-3.459Z" transform="translate(-880.582 -603.303)" fill="#fff" fill-rule="evenodd"/>
  <path id="Path_5215" data-name="Path 5215" d="M404.743,2655.4l-3.022,6.186h39.647l-3.022-6.186Z" transform="translate(-387.818 -2563.499)" fill="#3088f4"/>
  <path id="Path_5216" data-name="Path 5216" d="M607.689,2301.354l-10.277-10.016h-6.726l-10.276,10.016Z" transform="translate(-560.322 -2212.035)" fill="#3088f4" fill-rule="evenodd"/>
  <path id="Path_5217" data-name="Path 5217" d="M0,1431.48l22.516.9-21.9-5.939Zm.065-14.707,24.392,13.447L3.54,1411.542Zm6.2-14.917,21,26.708-14.606-30.931Z" transform="translate(0 -1349.261)" fill="#fff"/>
  <path id="Path_5218" data-name="Path 5218" d="M1165.954,1432.377l22.516-.9-.619-5.043Zm-1.94-2.156,24.391-13.447-3.474-5.231Zm-2.808-1.656,21-26.708-6.391-4.222Z" transform="translate(-1121.016 -1349.262)" fill="#fff"/>
</svg>
