<svg id="Group_2404" data-name="Group 2404" xmlns="http://www.w3.org/2000/svg" width="74.045" height="80.138" viewBox="0 0 74.045 80.138">
  <g id="Group_2404-2" data-name="Group 2404" transform="translate(0 0)">
    <path id="Path_5085" data-name="Path 5085" d="M76.573,65.425a8,8,0,0,0,7.236,4.434,7.814,7.814,0,0,0,7.972-7.648c0-.115,0-.23-.008-.344Z" transform="translate(-46.787 10.28)" fill="#3088f4"/>
    <path id="Path_5086" data-name="Path 5086" d="M105.894,34.407a19.064,19.064,0,0,0-4.277-6.086,19.967,19.967,0,0,0-6.346-4.1,20.81,20.81,0,0,0-15.543,0,19.945,19.945,0,0,0-6.345,4.1,19.042,19.042,0,0,0-4.277,6.086,18.353,18.353,0,0,0-1.57,7.455A16.259,16.259,0,0,0,71.16,52.329,17.742,17.742,0,0,1,75.17,62.5a7.87,7.87,0,0,0,1.11,4.014,1.845,1.845,0,0,0,2.459.645,1.692,1.692,0,0,0,.672-2.358,4.5,4.5,0,0,1-.637-2.3,21.017,21.017,0,0,0-4.907-12.452,10.347,10.347,0,0,1-1.315-2.07,13.8,13.8,0,0,1-1.413-6.117c0-8.653,7.339-15.694,16.36-15.694s16.361,7.041,16.361,15.694a13.651,13.651,0,0,1-1.356,6,10.3,10.3,0,0,1-1.379,2.193,21.03,21.03,0,0,0-4.9,12.446A4.572,4.572,0,0,1,94.9,65.7l-6.452,1.51-7.67,1.8-2.049.48a1.726,1.726,0,0,0-1.324,2.089A1.791,1.791,0,0,0,79.156,72.9a1.87,1.87,0,0,0,.43-.049l9.3-2.177,7.386-1.728a1.828,1.828,0,0,0,.556-.231c.146-.118.287-.242.424-.369A7.97,7.97,0,0,0,99.83,62.5a17.733,17.733,0,0,1,4.01-10.171,16.259,16.259,0,0,0,3.625-10.467,18.353,18.353,0,0,0-1.57-7.455" transform="translate(-50.478 -5.711)" fill="#3088f4"/>
    <path id="Path_5087" data-name="Path 5087" d="M92.567,57.492l-.923.215-14.963,3.5-.8.187a1.726,1.726,0,0,0-1.324,2.089A1.791,1.791,0,0,0,76.308,64.8a1.868,1.868,0,0,0,.428-.049l.68-.159,15.2-3.558.806-.189a1.725,1.725,0,0,0,1.322-2.089,1.807,1.807,0,0,0-2.177-1.269" transform="translate(-47.63 8.473)" fill="#3088f4"/>
    <path id="Path_5088" data-name="Path 5088" d="M66.886,37.419a1.7,1.7,0,0,0-1.7-1.7H57.118a1.7,1.7,0,0,0,0,3.391H65.19a1.7,1.7,0,0,0,1.7-1.7" transform="translate(-55.424 -0.398)" fill="#fff"/>
    <path id="Path_5089" data-name="Path 5089" d="M109.626,35.723h-8.072a1.7,1.7,0,1,0,0,3.391h8.072a1.7,1.7,0,1,0,0-3.391" transform="translate(-37.277 -0.398)" fill="#fff"/>
    <path id="Path_5090" data-name="Path 5090" d="M68.974,49.9l-5.707,5.707a1.7,1.7,0,0,0,2.4,2.4L71.371,52.3a1.695,1.695,0,0,0-2.4-2.4" transform="translate(-52.424 5.191)" fill="#fff"/>
    <path id="Path_5091" data-name="Path 5091" d="M95.887,27.085a1.69,1.69,0,0,0,1.2-.5l5.708-5.707a1.7,1.7,0,1,0-2.4-2.4l-5.707,5.707a1.7,1.7,0,0,0,1.2,2.894" transform="translate(-39.592 -7.641)" fill="#fff"/>
    <path id="Path_5092" data-name="Path 5092" d="M82.2,22.1a1.7,1.7,0,0,0,1.694-1.7V12.335a1.7,1.7,0,0,0-3.39,0v8.072a1.7,1.7,0,0,0,1.7,1.7" transform="translate(-45.18 -10.641)" fill="#fff"/>
    <path id="Path_5093" data-name="Path 5093" d="M97.085,49.9a1.7,1.7,0,0,0-2.4,2.4l5.707,5.708a1.7,1.7,0,1,0,2.4-2.4Z" transform="translate(-39.592 5.191)" fill="#fff"/>
    <path id="Path_5094" data-name="Path 5094" d="M68.974,26.588a1.695,1.695,0,0,0,2.4-2.4l-5.707-5.708a1.7,1.7,0,0,0-2.4,2.4Z" transform="translate(-52.424 -7.641)" fill="#fff"/>
  </g>
</svg>
