<svg id="Group_2406" data-name="Group 2406" xmlns="http://www.w3.org/2000/svg" xmlns:xlink="http://www.w3.org/1999/xlink" width="116.873" height="51.944" viewBox="0 0 116.873 51.944">
  <defs>
    <clipPath id="clip-path">
      <rect id="Rectangle_1148" data-name="Rectangle 1148" width="116.873" height="51.944" transform="translate(0 0)" fill="none"/>
    </clipPath>
  </defs>
  <g id="Group_2405" data-name="Group 2405" transform="translate(0 0)" clip-path="url(#clip-path)">
    <path id="Path_5219" data-name="Path 5219" d="M213.873,13.57a17.93,17.93,0,0,1,11.135-8.351l9.395,18.79S218.484,29.4,213.873,42.1A38.14,38.14,0,0,1,238.926,26.1L226.4,0s-11.657,6.089-12.527,13.57" transform="translate(-154.066 -0.475)" fill="#fff"/>
    <path id="Path_5220" data-name="Path 5220" d="M248.32,37.228l-12.527-26.1a39.7,39.7,0,0,0-5.41,3.561l1.254,2.613a18.808,18.808,0,0,1,2.765-.954l9.4,18.79s-23.125,5.838-29.925,18.79c0,0,9.886-12.521,34.448-16.7" transform="translate(-154.065 -8.474)" fill="#fff"/>
    <path id="Path_5221" data-name="Path 5221" d="M245.363,23.5a39.679,39.679,0,0,0-5.41,3.561l1.254,2.613a18.84,18.84,0,0,1,2.765-.954l9.395,18.79s-28.49,4.034-39.494,18.558c0,0,13.8-11.6,44.017-16.47Z" transform="translate(-154.066 -17.363)" fill="#fff"/>
    <path id="Path_5222" data-name="Path 5222" d="M261.4,60.53a62.642,62.642,0,0,1,9.9.761L254.7,25.56l-7.423.232,1.624,4.176,3.654-.232,12.783,27.27c-28.963-1.173-51.464,14.253-51.464,14.253a112.1,112.1,0,0,1,39.891-10.505" transform="translate(-154.066 -18.844)" fill="#fff"/>
    <path id="Path_5223" data-name="Path 5223" d="M86.207,35.14,95.6,16.351a18.784,18.784,0,0,1,2.765.954l1.254-2.613a39.7,39.7,0,0,0-5.41-3.561l-12.526,26.1c24.562,4.182,34.448,16.7,34.448,16.7-6.8-12.952-29.925-18.79-29.925-18.79" transform="translate(-59.067 -8.474)" fill="#3088f4"/>
    <path id="Path_5224" data-name="Path 5224" d="M52.2,47.509l9.395-18.79a18.8,18.8,0,0,1,2.764.954l1.254-2.613A39.666,39.666,0,0,0,60.2,23.5L47.672,49.6c30.214,4.871,44.017,16.47,44.017,16.47C80.685,51.544,52.2,47.509,52.2,47.509" transform="translate(-34.623 -17.363)" fill="#3088f4"/>
    <path id="Path_5225" data-name="Path 5225" d="M140.13,13.57C139.26,6.089,127.6,0,127.6,0L115.077,26.1A38.14,38.14,0,0,1,140.13,42.1C135.52,29.4,119.6,24.009,119.6,24.009L129,5.219A17.93,17.93,0,0,1,140.13,13.57" transform="translate(-83.065 -0.475)" fill="#3088f4"/>
    <line id="Line_88" data-name="Line 88" x2="6.897" y2="14.844" transform="translate(104.983 11.179)" fill="#00547b"/>
    <path id="Path_5226" data-name="Path 5226" d="M11.635,36.251,16.6,25.561l7.423.232L22.4,29.968l-3.653-.232L5.964,57.006C34.927,55.833,57.429,71.26,57.429,71.26,25.764,56.413,0,61.292,0,61.292L5.957,48.471Z" transform="translate(-0.363 -18.845)" fill="#3088f4"/>
  </g>
</svg>
