<svg xmlns="http://www.w3.org/2000/svg" width="120" height="34.059" viewBox="0 0 120 34.059">
  <g id="JB-Sales-Logo" transform="translate(-17.8 -20.4)">
    <g id="Group_10" data-name="Group 10" transform="translate(17.8 20.4)">
      <path id="Path_88" data-name="Path 88" d="M102.979,64.4a8.218,8.218,0,0,0,4.767-4.635,4.252,4.252,0,0,0,.212-1.006c.027-.53-.265-.742-.715-.477a4.854,4.854,0,0,0-1.3,1.033,16.8,16.8,0,0,0-2.41,3.655c-.238.45-.45.927-.636,1.377h0Z" transform="translate(-80.362 -48.167)" fill="#fff"/>
      <path id="Path_89" data-name="Path 89" d="M54.988,92.821a11.947,11.947,0,0,0-4.264,2.754,4.415,4.415,0,0,0-1.086,1.774,1.207,1.207,0,0,0,1.006,1.642,3.177,3.177,0,0,0,1.324-.053A4.645,4.645,0,0,0,54.193,97.4a16.348,16.348,0,0,0,2.2-3.311c.344-.689.689-1.377,1.086-2.092h0c-.079,0-.132.026-.212.026C56.524,92.291,55.729,92.5,54.988,92.821Z" transform="translate(-41.163 -73.037)" fill="#fff"/>
      <path id="Path_90" data-name="Path 90" d="M17.8,20.4c0,.238.026.45.026.689v33.37H51.885V21.089c0-.238.026-.45.026-.689ZM40.073,39.018a.76.76,0,0,0,.795.689.511.511,0,0,0,.265-.079,1.686,1.686,0,0,0,1.192-1.351.534.534,0,0,0-.079-.291.778.778,0,0,1-.026-.795c.159-.265.424-.265.715-.238.609,0,1.192,0,1.8-.026.079,0,.212-.053.212-.106.053-.318.291-.318.477-.265a1.046,1.046,0,0,1,.636.318c.185.238,0,.556-.318.609-.662.079-1.3.159-1.96.212h-.4a3.841,3.841,0,0,1-.953,2.039,3.46,3.46,0,0,1-1.271.847,1.38,1.38,0,0,1-1.933-.927,4.875,4.875,0,0,1-.132-1.086,3.187,3.187,0,0,1,0-.5l-1.43.424c-.424.132-.847.265-1.3.371a.894.894,0,0,0-.583.45c-.821,1.377-1.616,2.754-2.49,4.105a9.721,9.721,0,0,1-2.86,3.019,4.829,4.829,0,0,1-3.046.821A1.98,1.98,0,0,1,25.4,45.666a2.646,2.646,0,0,1,.238-1.43,7.436,7.436,0,0,1,3.125-3.443,19.918,19.918,0,0,1,5.4-2.172,1.3,1.3,0,0,0,.874-.662,29.406,29.406,0,0,0,2.648-7.045,7.319,7.319,0,0,0,.159-1.854c0-.583-.318-.715-.821-.4a4.292,4.292,0,0,0-1.351,1.563A9.532,9.532,0,0,0,34.3,34.543a5.474,5.474,0,0,0,.053,1.139c.053.344.132.662.53.768a.58.58,0,0,1,.265.238c.212.265.079.583-.238.583a2,2,0,0,1-.768-.238c-.159-.053-.291-.185-.45-.185-2.516-.026-5.032-.026-7.548-.026-.583,0-1.139.079-1.8.132a3.875,3.875,0,0,1,.344.238c.053.079.132.212.106.291a.383.383,0,0,1-.265.185c-.689-.159-1.377-.318-2.066-.53a.423.423,0,0,1-.212-.371.512.512,0,0,1,.371-.291c.715-.106,1.43-.159,2.119-.238a73.573,73.573,0,0,1,8.713-.053c.053,0,.079-.026.132-.026a7.6,7.6,0,0,1-.132-.821,9.536,9.536,0,0,1,1.986-6.356,3.75,3.75,0,0,1,1.51-1.139,1.113,1.113,0,0,1,1.668.9,8.531,8.531,0,0,1-.026,2.172,27.281,27.281,0,0,1-1.8,6.091c-.132.344-.238.689-.371,1.033l.079.079c.847-.291,1.695-.583,2.516-.874a.406.406,0,0,0,.185-.265,14.039,14.039,0,0,1,3.284-5.827,5.284,5.284,0,0,1,2.2-1.43,2.512,2.512,0,0,1,.609-.132.851.851,0,0,1,.98.742v.212a5.089,5.089,0,0,1-.291,1.536A9.418,9.418,0,0,1,41.4,37.138c-.371.185-.742.344-1.112.556a.516.516,0,0,0-.238.238A7.925,7.925,0,0,0,40.073,39.018Z" transform="translate(-17.8 -20.4)" fill="#fff"/>
    </g>
    <path id="Path_91" data-name="Path 91" d="M171.8,65.549l2.013-2.887a7.569,7.569,0,0,0,5.509,2.357c2.066,0,3.019-.9,3.019-1.933,0-3.019-9.985-.9-9.985-7.416,0-2.887,2.49-5.27,6.568-5.27a9.623,9.623,0,0,1,6.753,2.41l-2.066,2.754a7.491,7.491,0,0,0-5.032-1.907c-1.563,0-2.437.662-2.437,1.721,0,2.728,9.958.874,9.958,7.363,0,3.178-2.278,5.562-6.939,5.562A10.085,10.085,0,0,1,171.8,65.549Z" transform="translate(-113.214 -22.055)" fill="#fff"/>
    <path id="Path_92" data-name="Path 92" d="M244.9,68.721l-1.086-2.94H236.37l-1.086,2.94H231.1L237.774,51.4h4.635l6.674,17.321Zm-4.82-13.639-2.7,7.469h5.4Z" transform="translate(-156.809 -22.79)" fill="#fff"/>
    <path id="Path_93" data-name="Path 93" d="M307.3,68.647V51.3h3.708V65.39h7.336v3.258Z" transform="translate(-212.828 -22.716)" fill="#fff"/>
    <path id="Path_94" data-name="Path 94" d="M361.2,68.647V51.3h12.262v3.258h-8.581v3.628h8.4v3.258h-8.4V65.39h8.581v3.258Z" transform="translate(-252.453 -22.716)" fill="#fff"/>
    <path id="Path_95" data-name="Path 95" d="M416.8,65.549l2.013-2.887a7.569,7.569,0,0,0,5.509,2.357c2.066,0,3.019-.9,3.019-1.933,0-3.019-9.984-.9-9.984-7.416,0-2.887,2.489-5.27,6.568-5.27a9.623,9.623,0,0,1,6.753,2.41l-2.039,2.754a7.491,7.491,0,0,0-5.032-1.907c-1.563,0-2.437.662-2.437,1.721,0,2.728,9.958.874,9.958,7.363,0,3.178-2.278,5.562-6.939,5.562A10.062,10.062,0,0,1,416.8,65.549Z" transform="translate(-293.328 -22.055)" fill="#fff"/>
  </g>
</svg>
