<svg xmlns="http://www.w3.org/2000/svg" xmlns:xlink="http://www.w3.org/1999/xlink" width="215" height="47.783" viewBox="0 0 215 47.783">
  <defs>
    <clipPath id="clip-path">
      <rect id="Rectangle_1075" data-name="Rectangle 1075" width="58.716" height="47.783" transform="translate(0 0)" fill="none"/>
    </clipPath>
  </defs>
  <g id="john_barrows-logo-horizontal" transform="translate(-40 -38)">
    <text id="JOHN_BARROWS" data-name="JOHN BARROWS" transform="translate(111 64)" fill="#fff" font-size="19" font-family="SegoeUI, Segoe UI" letter-spacing="0.01em"><tspan x="0" y="0">JOHN BARROWS</tspan></text>
    <g id="Group_1945" data-name="Group 1945" transform="translate(40 38)">
      <g id="Group_1945-2" data-name="Group 1945" clip-path="url(#clip-path)">
        <path id="Path_5064" data-name="Path 5064" d="M56.634,21.777c-.456-.1-1.072-.136-1.169.646-.02.124-.33.285-.511.285-1.468.064-2.935.064-4.409.064-.679-.038-1.339-.038-1.733.608a1.841,1.841,0,0,0,.052,1.939,1.169,1.169,0,0,1,.174.731A4.261,4.261,0,0,1,46.1,29.373a1.817,1.817,0,0,1-2.586-1.486,14.259,14.259,0,0,1,.037-2.921c.019-.22.322-.485.562-.608.887-.466,1.824-.854,2.71-1.332A22.765,22.765,0,0,0,58,10.684a12.5,12.5,0,0,0,.7-3.736,2.129,2.129,0,0,0-2.425-2.334,6.013,6.013,0,0,0-1.513.3,13.223,13.223,0,0,0-5.353,3.517,34.262,34.262,0,0,0-8,14.2c-.071.238-.245.575-.459.646-2.044.737-4.1,1.428-6.154,2.126a2.057,2.057,0,0,1-.182-.168c.3-.827.59-1.667.906-2.494A65.212,65.212,0,0,0,39.95,7.84a21.446,21.446,0,0,0,.045-5.268A2.709,2.709,0,0,0,35.929.367a8.866,8.866,0,0,0-3.708,2.754,23.208,23.208,0,0,0-4.85,15.488,16.66,16.66,0,0,0,.317,2,2.542,2.542,0,0,1-.324.064,179.757,179.757,0,0,0-21.274.117c-1.707.155-3.446.309-5.172.549A1.291,1.291,0,0,0,0,22.06a1.1,1.1,0,0,0,.549.932c1.662.49,3.349.911,5.036,1.292.168.05.562-.258.646-.428S6.154,23.33,6,23.143a4.3,4.3,0,0,0-.847-.6c1.608-.115,3.019-.3,4.421-.3q9.221-.007,18.429.085c.366.007.711.3,1.079.427a6.286,6.286,0,0,0,1.875.571c.8.014,1.072-.756.587-1.4a1.567,1.567,0,0,0-.646-.588c-1.007-.289-1.188-1.085-1.292-1.9a15.893,15.893,0,0,1-.143-2.766A23.214,23.214,0,0,1,32.8,6.133a10.863,10.863,0,0,1,3.31-3.8c1.2-.789,1.979-.456,1.979.97a22.185,22.185,0,0,1-.421,4.526,72.623,72.623,0,0,1-6.464,17.22A2.9,2.9,0,0,1,29.1,26.677a47.854,47.854,0,0,0-13.206,5.3,18.168,18.168,0,0,0-7.6,8.4,6.075,6.075,0,0,0-.57,3.5,4.817,4.817,0,0,0,4.842,3.878,11.881,11.881,0,0,0,7.466-2.011A23.765,23.765,0,0,0,27,38.363c2.114-3.271,4.053-6.651,6.05-10a2.052,2.052,0,0,1,1.409-1.092c1.057-.227,2.1-.569,3.138-.873l3.472-1.022c0,.5-.039.879,0,1.254a13.215,13.215,0,0,0,.355,2.657,3.334,3.334,0,0,0,.2.576,3.43,3.43,0,0,0,4.543,1.706,7.413,7.413,0,0,0,3.1-2.049,9.472,9.472,0,0,0,2.341-4.984h.944c1.6-.161,3.2-.3,4.783-.523.809-.117,1.268-.937.809-1.493a2.784,2.784,0,0,0-1.519-.743M45.708,18.533a39.353,39.353,0,0,1,5.881-8.9A13.852,13.852,0,0,1,54.77,7.143c1.087-.646,1.81-.161,1.733,1.131a8.851,8.851,0,0,1-.5,2.456c-2.114,5.6-6.308,9.057-11.635,11.339l-.211-.143h-.02c.5-1.131.961-2.287,1.569-3.393M28.957,28.763c-.923,1.75-1.776,3.411-2.623,5.084a40.93,40.93,0,0,1-5.365,8.08,11.247,11.247,0,0,1-5.41,3.775,8,8,0,0,1-3.232.143,2.964,2.964,0,0,1-2.456-4.008,10.052,10.052,0,0,1,2.637-4.35,28.568,28.568,0,0,1,10.421-6.724c1.8-.763,3.691-1.283,5.539-1.926a3.1,3.1,0,0,1,.489-.074l0,0h.02a.146.146,0,0,0-.022,0" fill="#3088f4"/>
      </g>
    </g>
  </g>
</svg>
