<svg xmlns="http://www.w3.org/2000/svg" xmlns:xlink="http://www.w3.org/1999/xlink" width="98.519" height="105.015" viewBox="0 0 98.519 105.015">
  <defs>
    <clipPath id="clip-path">
      <rect id="Rectangle_1075" data-name="Rectangle 1075" width="98.519" height="80.175" fill="none"/>
    </clipPath>
  </defs>
  <g id="john_barrows-logo-vertical-2" transform="translate(-904 -342)">
    <g id="Group_1892" data-name="Group 1892" transform="translate(904 342)">
      <text id="JOHN_BARROWS" data-name="JOHN BARROWS" transform="translate(5.016 102.015)" fill="#fff" font-size="13" font-family="AmsiProNarw-Ultra, Amsi Pro Narw" letter-spacing="0.01em"><tspan x="0" y="0">JOHN BARROWS</tspan></text>
      <g id="Group_1945" data-name="Group 1945" transform="translate(0)">
        <g id="Group_1945-2" data-name="Group 1945" transform="translate(0 0)" clip-path="url(#clip-path)">
          <path id="Path_5064" data-name="Path 5064" d="M95.026,36.539c-.765-.163-1.8-.228-1.961,1.084-.034.208-.554.478-.857.478-2.463.107-4.925.107-7.4.107-1.139-.064-2.247-.064-2.908,1.02a3.09,3.09,0,0,0,.087,3.253,1.961,1.961,0,0,1,.292,1.227,7.15,7.15,0,0,1-4.935,5.576,3.049,3.049,0,0,1-4.339-2.493,23.924,23.924,0,0,1,.062-4.9c.032-.369.54-.814.943-1.02,1.488-.782,3.06-1.433,4.547-2.235A38.2,38.2,0,0,0,97.316,17.926,20.972,20.972,0,0,0,98.5,11.658,3.572,3.572,0,0,0,94.43,7.741a10.089,10.089,0,0,0-2.539.51,22.187,22.187,0,0,0-8.982,5.9A57.487,57.487,0,0,0,69.493,37.972c-.119.4-.411.965-.77,1.084-3.43,1.237-6.878,2.4-10.326,3.567a3.452,3.452,0,0,1-.305-.282c.5-1.388.99-2.8,1.52-4.185a109.418,109.418,0,0,0,7.42-25,35.984,35.984,0,0,0,.076-8.839,4.546,4.546,0,0,0-6.822-3.7,14.876,14.876,0,0,0-6.222,4.621,38.941,38.941,0,0,0-8.138,25.987,27.954,27.954,0,0,0,.532,3.351,4.266,4.266,0,0,1-.544.107,301.614,301.614,0,0,0-35.7.2c-2.864.26-5.782.518-8.678.921A2.166,2.166,0,0,0,0,37.014a1.843,1.843,0,0,0,.921,1.564c2.789.822,5.619,1.529,8.45,2.168.282.084.943-.433,1.084-.718s-.129-.883-.389-1.2a7.212,7.212,0,0,0-1.421-1.01c2.7-.193,5.066-.5,7.418-.5q15.471-.013,30.922.143c.614.012,1.193.5,1.81.716a10.547,10.547,0,0,0,3.146.958c1.344.023,1.8-1.268.985-2.352a2.629,2.629,0,0,0-1.084-.987c-1.69-.485-1.993-1.821-2.168-3.188a26.668,26.668,0,0,1-.24-4.641A38.951,38.951,0,0,1,55.042,10.29,18.227,18.227,0,0,1,60.6,3.912c2.019-1.324,3.321-.765,3.321,1.628a37.225,37.225,0,0,1-.706,7.594A121.853,121.853,0,0,1,52.364,42.028a4.866,4.866,0,0,1-3.537,2.733,80.294,80.294,0,0,0-22.158,8.893,30.484,30.484,0,0,0-12.755,14.1,10.193,10.193,0,0,0-.956,5.868,8.082,8.082,0,0,0,8.124,6.507,19.936,19.936,0,0,0,12.527-3.374,39.876,39.876,0,0,0,11.7-12.386c3.547-5.488,6.8-11.16,10.151-16.779a3.442,3.442,0,0,1,2.364-1.832c1.774-.381,3.519-.955,5.265-1.465l5.826-1.715c0,.836-.065,1.475,0,2.1a22.173,22.173,0,0,0,.6,4.458,5.594,5.594,0,0,0,.339.966,5.756,5.756,0,0,0,7.623,2.862,12.439,12.439,0,0,0,5.2-3.438,15.892,15.892,0,0,0,3.928-8.363h1.584c2.68-.27,5.369-.5,8.025-.878,1.357-.2,2.128-1.572,1.357-2.505a4.671,4.671,0,0,0-2.549-1.247M76.693,31.1a66.03,66.03,0,0,1,9.868-14.935A23.243,23.243,0,0,1,91.9,11.985c1.824-1.084,3.037-.27,2.908,1.9A14.852,14.852,0,0,1,93.97,18C90.423,27.4,83.386,33.2,74.448,37.029l-.354-.24h-.034c.842-1.9,1.612-3.837,2.633-5.693M48.587,48.261c-1.549,2.936-2.98,5.723-4.4,8.53a68.676,68.676,0,0,1-9,13.557,18.871,18.871,0,0,1-9.077,6.334,13.429,13.429,0,0,1-5.423.24A4.974,4.974,0,0,1,16.562,70.2a16.867,16.867,0,0,1,4.425-7.3A47.935,47.935,0,0,1,38.472,51.617c3.024-1.28,6.193-2.153,9.294-3.232a5.209,5.209,0,0,1,.82-.124l0-.005h.034a.245.245,0,0,0-.037.005" transform="translate(0 0)" fill="#3088f4"/>
        </g>
      </g>
    </g>
  </g>
</svg>
