<svg xmlns="http://www.w3.org/2000/svg" width="59" height="72.094" viewBox="0 0 59 72.094">
  <g id="john_barrows-logo-vertical" transform="translate(-43 -28.906)">
    <text id="JOHN_BARROWS" data-name="JOHN BARROWS" transform="translate(43 99)" fill="#fff" font-size="8.3" font-family="AmsiProNarw-Ultra, Amsi Pro Narw" letter-spacing="0.01em"><tspan x="0" y="0">JOHN BARROWS</tspan></text>
    <g id="Group_1891" data-name="Group 1891" transform="translate(25.556 -403.474)">
      <path id="Path_5049" data-name="Path 5049" d="M103.013,480.784c3.735-1.6,6.676-4.025,8.158-7.95a6.2,6.2,0,0,0,.349-1.722c.054-.906-.453-1.246-1.215-.793a9.709,9.709,0,0,0-2.23,1.745,27.6,27.6,0,0,0-4.124,6.241c-.426.775-.748,1.586-1.1,2.379h.014Z" transform="translate(-46.531 -20.635)" fill="#3088f4"/>
      <path id="Path_5050" data-name="Path 5050" d="M58.875,505.4a20.024,20.024,0,0,0-7.306,4.714,7.044,7.044,0,0,0-1.849,3.05,2.078,2.078,0,0,0,1.722,2.81,5.618,5.618,0,0,0,2.266-.1,7.887,7.887,0,0,0,3.793-2.647,28.7,28.7,0,0,0,3.762-5.665c.594-1.174,1.192-2.339,1.84-3.567l.014,0a2.178,2.178,0,0,0-.358.054C61.463,504.5,60.139,504.865,58.875,505.4Z" transform="translate(-17.426 -39.155)" fill="#3088f4"/>
      <path id="Path_5051" data-name="Path 5051" d="M17.75,432.38c0,.394.041.784.041,1.178v57.115H76.1V433.567c0-.394.027-.784.041-1.178Zm38.13,31.848a1.274,1.274,0,0,0,1.813,1.042,2.987,2.987,0,0,0,2.062-2.33.819.819,0,0,0-.122-.512,1.291,1.291,0,0,1-.036-1.36c.276-.453.739-.453,1.215-.426,1.033,0,2.062,0,3.091-.045.127,0,.344-.113.358-.2.068-.548.5-.521.82-.453a1.959,1.959,0,0,1,1.065.521c.322.39,0,.965-.567,1.047-1.11.159-2.234.254-3.354.367h-.662a6.635,6.635,0,0,1-1.641,3.494,5.2,5.2,0,0,1-2.175,1.437,2.406,2.406,0,0,1-3.327-1.6,9.319,9.319,0,0,1-.249-1.863c-.027-.263,0-.53,0-.879l-2.434.716c-.73.213-1.459.453-2.2.612a1.44,1.44,0,0,0-.988.766c-1.4,2.348-2.76,4.718-4.242,7.011a16.662,16.662,0,0,1-4.89,5.176,8.335,8.335,0,0,1-5.235,1.41,3.377,3.377,0,0,1-3.395-2.719,4.263,4.263,0,0,1,.4-2.452,12.737,12.737,0,0,1,5.33-5.892,33.542,33.542,0,0,1,9.259-3.716,2.035,2.035,0,0,0,1.478-1.142,50.939,50.939,0,0,0,4.532-12.074,15.531,15.531,0,0,0,.295-3.173c0-1-.544-1.233-1.387-.68a7.611,7.611,0,0,0-2.321,2.665,16.271,16.271,0,0,0-2.343,7.388,11.107,11.107,0,0,0,.1,1.94c.073.571.2,1.129.906,1.332a1.1,1.1,0,0,1,.453.412c.34.453.15.993-.412.983a4.4,4.4,0,0,1-1.314-.4c-.258-.091-.5-.295-.757-.3-4.306-.036-8.611-.063-12.921-.059-.983,0-1.972.127-3.1.208a3,3,0,0,1,.594.422c.109.131.222.381.163.5s-.335.335-.453.3c-1.183-.267-2.366-.562-3.531-.906a.77.77,0,0,1-.385-.653.907.907,0,0,1,.644-.508c1.21-.168,2.429-.276,3.626-.385a125.993,125.993,0,0,1,14.916-.082,1.747,1.747,0,0,0,.227-.045,11.71,11.71,0,0,1-.222-1.4,16.272,16.272,0,0,1,3.4-10.859,6.222,6.222,0,0,1,2.6-1.931,1.9,1.9,0,0,1,2.851,1.546,15.034,15.034,0,0,1-.032,3.694,45.707,45.707,0,0,1-3.1,10.447c-.222.58-.426,1.169-.635,1.749a1.482,1.482,0,0,0,.127.118c1.441-.49,2.882-.974,4.315-1.491.15-.05.272-.286.322-.453a24.021,24.021,0,0,1,5.606-9.953,9.276,9.276,0,0,1,3.753-2.466,4.191,4.191,0,0,1,1.061-.213,1.491,1.491,0,0,1,1.7,1.636,8.757,8.757,0,0,1-.494,2.62A15.96,15.96,0,0,1,58.2,460.82c-.621.335-1.278.607-1.9.934-.168.086-.381.272-.394.426A9.984,9.984,0,0,0,55.88,464.228Z" fill="#3088f4"/>
    </g>
  </g>
</svg>
