<svg xmlns="http://www.w3.org/2000/svg" xmlns:xlink="http://www.w3.org/1999/xlink" width="213.586" height="47.783" viewBox="0 0 213.586 47.783">
  <defs>
    <clipPath id="clip-path">
      <rect id="Rectangle_1075" data-name="Rectangle 1075" width="58.716" height="47.783" transform="translate(0 0)" fill="none"/>
    </clipPath>
  </defs>
  <g id="Group_2459" data-name="Group 2459" transform="translate(-300 -117)">
    <g id="john_barrows-logo-horizontal" transform="translate(260 79)">
      <path id="Path_5244" data-name="Path 5244" d="M5.149-4.769a5.946,5.946,0,0,1-1,3.678A3.2,3.2,0,0,1,1.466.223,3.17,3.17,0,0,1,.186,0V-1.54a2.166,2.166,0,0,0,1.3.362q2.106,0,2.106-3.572V-13.3H5.149ZM14.078.223A5.84,5.84,0,0,1,9.546-1.642a6.916,6.916,0,0,1-1.7-4.852,7.328,7.328,0,0,1,1.735-5.121A6.059,6.059,0,0,1,14.3-13.526a5.708,5.708,0,0,1,4.439,1.855,6.942,6.942,0,0,1,1.684,4.852A7.352,7.352,0,0,1,18.7-1.67,5.947,5.947,0,0,1,14.078.223Zm.111-12.339a4.289,4.289,0,0,0-3.4,1.512A5.854,5.854,0,0,0,9.477-6.633a5.9,5.9,0,0,0,1.276,3.957,4.16,4.16,0,0,0,3.326,1.5,4.368,4.368,0,0,0,3.451-1.429,5.839,5.839,0,0,0,1.262-4,6.1,6.1,0,0,0-1.225-4.073A4.2,4.2,0,0,0,14.19-12.116ZM33.231,0H31.672V-6.067H24.789V0H23.23V-13.3h1.559v5.835h6.884V-13.3h1.559Zm14.4,0H45.723L38.876-10.6a4.431,4.431,0,0,1-.427-.835h-.056a13.7,13.7,0,0,1,.074,1.828V0H36.909V-13.3h2.022L45.593-2.867q.417.649.538.891h.037a14.076,14.076,0,0,1-.093-1.958V-13.3h1.559Zm9.073,0V-13.3h3.785a4.137,4.137,0,0,1,2.737.844,2.729,2.729,0,0,1,1.011,2.2,3.235,3.235,0,0,1-.612,1.967,3.3,3.3,0,0,1-1.688,1.188v.037a3.385,3.385,0,0,1,2.152,1.016A3.125,3.125,0,0,1,64.9-3.822a3.478,3.478,0,0,1-1.225,2.765A4.558,4.558,0,0,1,60.585,0Zm1.559-11.894v4.3h1.6a3.03,3.03,0,0,0,2.013-.617,2.148,2.148,0,0,0,.733-1.74q0-1.939-2.551-1.939Zm0,5.7V-1.41h2.115A3.169,3.169,0,0,0,62.51-2.06a2.225,2.225,0,0,0,.756-1.781q0-2.356-3.21-2.356ZM78.086,0H76.361l-1.41-3.729H69.31L67.983,0H66.248l5.1-13.3h1.614ZM74.44-5.13,72.353-10.8a5.428,5.428,0,0,1-.2-.891h-.037a4.969,4.969,0,0,1-.213.891L69.829-5.13ZM89.771,0H87.915L85.689-3.729a8.122,8.122,0,0,0-.594-.886,3.385,3.385,0,0,0-.589-.6,2.04,2.04,0,0,0-.649-.339,2.67,2.67,0,0,0-.784-.107h-1.28V0H80.234V-13.3H84.2a5.659,5.659,0,0,1,1.61.218,3.6,3.6,0,0,1,1.28.663,3.083,3.083,0,0,1,.849,1.109,3.676,3.676,0,0,1,.306,1.554,3.742,3.742,0,0,1-.209,1.276,3.331,3.331,0,0,1-.594,1.034,3.6,3.6,0,0,1-.928.775,4.736,4.736,0,0,1-1.22.5v.037a2.806,2.806,0,0,1,.58.339,3.191,3.191,0,0,1,.469.45,5.96,5.96,0,0,1,.441.589q.218.329.487.765ZM81.792-11.894v4.824h2.115a3.208,3.208,0,0,0,1.081-.176,2.5,2.5,0,0,0,.858-.506,2.293,2.293,0,0,0,.566-.807,2.7,2.7,0,0,0,.2-1.072,2.086,2.086,0,0,0-.691-1.665,2.969,2.969,0,0,0-2-.6ZM101.326,0H99.47L97.244-3.729a8.122,8.122,0,0,0-.594-.886,3.385,3.385,0,0,0-.589-.6,2.04,2.04,0,0,0-.649-.339,2.67,2.67,0,0,0-.784-.107h-1.28V0H91.789V-13.3h3.971a5.659,5.659,0,0,1,1.61.218,3.6,3.6,0,0,1,1.28.663,3.083,3.083,0,0,1,.849,1.109A3.676,3.676,0,0,1,99.8-9.76,3.742,3.742,0,0,1,99.6-8.484,3.331,3.331,0,0,1,99-7.45a3.6,3.6,0,0,1-.928.775,4.736,4.736,0,0,1-1.22.5v.037a2.806,2.806,0,0,1,.58.339,3.191,3.191,0,0,1,.469.45,5.96,5.96,0,0,1,.441.589q.218.329.487.765ZM93.347-11.894v4.824h2.115a3.208,3.208,0,0,0,1.081-.176,2.5,2.5,0,0,0,.858-.506,2.293,2.293,0,0,0,.566-.807,2.7,2.7,0,0,0,.2-1.072A2.086,2.086,0,0,0,97.48-11.3a2.969,2.969,0,0,0-2-.6ZM108.52.223a5.84,5.84,0,0,1-4.532-1.865,6.916,6.916,0,0,1-1.7-4.852,7.328,7.328,0,0,1,1.735-5.121,6.059,6.059,0,0,1,4.722-1.911,5.708,5.708,0,0,1,4.439,1.855,6.942,6.942,0,0,1,1.684,4.852A7.352,7.352,0,0,1,113.14-1.67,5.947,5.947,0,0,1,108.52.223Zm.111-12.339a4.289,4.289,0,0,0-3.4,1.512,5.854,5.854,0,0,0-1.308,3.971,5.9,5.9,0,0,0,1.276,3.957,4.16,4.16,0,0,0,3.326,1.5,4.368,4.368,0,0,0,3.451-1.429,5.839,5.839,0,0,0,1.262-4,6.1,6.1,0,0,0-1.225-4.073A4.2,4.2,0,0,0,108.631-12.116ZM132.98-13.3,129.222,0h-1.828l-2.737-9.723a6.086,6.086,0,0,1-.213-1.354h-.037a6.872,6.872,0,0,1-.241,1.336L121.411,0H119.6l-3.9-13.3h1.716L120.251-3.1a6.7,6.7,0,0,1,.223,1.336h.046a7.886,7.886,0,0,1,.288-1.336L123.749-13.3h1.494l2.82,10.279a7.521,7.521,0,0,1,.223,1.243h.037a7.451,7.451,0,0,1,.25-1.28L131.291-13.3ZM134.524-.538V-2.375a3.568,3.568,0,0,0,.756.5,6.126,6.126,0,0,0,.928.376,7.385,7.385,0,0,0,.979.237,5.457,5.457,0,0,0,.909.083,3.561,3.561,0,0,0,2.148-.533,1.8,1.8,0,0,0,.71-1.535,1.8,1.8,0,0,0-.237-.937,2.665,2.665,0,0,0-.654-.728,6.49,6.49,0,0,0-.988-.631q-.571-.3-1.229-.635-.7-.353-1.3-.714a5.628,5.628,0,0,1-1.048-.8,3.328,3.328,0,0,1-.7-.988,3.058,3.058,0,0,1-.255-1.294,3.043,3.043,0,0,1,.4-1.582,3.422,3.422,0,0,1,1.048-1.109,4.753,4.753,0,0,1,1.48-.649,6.775,6.775,0,0,1,1.693-.213,6.488,6.488,0,0,1,2.867.473V-11.3a5.2,5.2,0,0,0-3.024-.816,4.974,4.974,0,0,0-1.021.107,2.883,2.883,0,0,0-.909.348,2.014,2.014,0,0,0-.649.622,1.65,1.65,0,0,0-.25.928,1.91,1.91,0,0,0,.19.881,2.16,2.16,0,0,0,.561.677,5.59,5.59,0,0,0,.9.594q.533.288,1.229.631.714.353,1.354.742a6.191,6.191,0,0,1,1.123.863,3.834,3.834,0,0,1,.765,1.048,2.947,2.947,0,0,1,.283,1.317,3.341,3.341,0,0,1-.385,1.665,3.16,3.16,0,0,1-1.039,1.109,4.538,4.538,0,0,1-1.508.617,8.256,8.256,0,0,1-1.8.19,7.334,7.334,0,0,1-.779-.051q-.464-.051-.946-.148a7.722,7.722,0,0,1-.914-.241A2.843,2.843,0,0,1,134.524-.538Z" transform="translate(111 64)" fill="#fff"/>
      <g id="Group_1945" data-name="Group 1945" transform="translate(40 38)">
        <g id="Group_1945-2" data-name="Group 1945" clip-path="url(#clip-path)">
          <path id="Path_5064" data-name="Path 5064" d="M56.634,21.777c-.456-.1-1.072-.136-1.169.646-.02.124-.33.285-.511.285-1.468.064-2.935.064-4.409.064-.679-.038-1.339-.038-1.733.608a1.841,1.841,0,0,0,.052,1.939,1.169,1.169,0,0,1,.174.731A4.261,4.261,0,0,1,46.1,29.373a1.817,1.817,0,0,1-2.586-1.486,14.259,14.259,0,0,1,.037-2.921c.019-.22.322-.485.562-.608.887-.466,1.824-.854,2.71-1.332A22.765,22.765,0,0,0,58,10.684a12.5,12.5,0,0,0,.7-3.736,2.129,2.129,0,0,0-2.425-2.334,6.013,6.013,0,0,0-1.513.3,13.223,13.223,0,0,0-5.353,3.517,34.262,34.262,0,0,0-8,14.2c-.071.238-.245.575-.459.646-2.044.737-4.1,1.428-6.154,2.126a2.057,2.057,0,0,1-.182-.168c.3-.827.59-1.667.906-2.494A65.212,65.212,0,0,0,39.95,7.84a21.446,21.446,0,0,0,.045-5.268A2.709,2.709,0,0,0,35.929.367a8.866,8.866,0,0,0-3.708,2.754,23.208,23.208,0,0,0-4.85,15.488,16.66,16.66,0,0,0,.317,2,2.542,2.542,0,0,1-.324.064,179.757,179.757,0,0,0-21.274.117c-1.707.155-3.446.309-5.172.549A1.291,1.291,0,0,0,0,22.06a1.1,1.1,0,0,0,.549.932c1.662.49,3.349.911,5.036,1.292.168.05.562-.258.646-.428S6.154,23.33,6,23.143a4.3,4.3,0,0,0-.847-.6c1.608-.115,3.019-.3,4.421-.3q9.221-.007,18.429.085c.366.007.711.3,1.079.427a6.286,6.286,0,0,0,1.875.571c.8.014,1.072-.756.587-1.4a1.567,1.567,0,0,0-.646-.588c-1.007-.289-1.188-1.085-1.292-1.9a15.893,15.893,0,0,1-.143-2.766A23.214,23.214,0,0,1,32.8,6.133a10.863,10.863,0,0,1,3.31-3.8c1.2-.789,1.979-.456,1.979.97a22.185,22.185,0,0,1-.421,4.526,72.623,72.623,0,0,1-6.464,17.22A2.9,2.9,0,0,1,29.1,26.677a47.854,47.854,0,0,0-13.206,5.3,18.168,18.168,0,0,0-7.6,8.4,6.075,6.075,0,0,0-.57,3.5,4.817,4.817,0,0,0,4.842,3.878,11.881,11.881,0,0,0,7.466-2.011A23.765,23.765,0,0,0,27,38.363c2.114-3.271,4.053-6.651,6.05-10a2.052,2.052,0,0,1,1.409-1.092c1.057-.227,2.1-.569,3.138-.873l3.472-1.022c0,.5-.039.879,0,1.254a13.215,13.215,0,0,0,.355,2.657,3.334,3.334,0,0,0,.2.576,3.43,3.43,0,0,0,4.543,1.706,7.413,7.413,0,0,0,3.1-2.049,9.472,9.472,0,0,0,2.341-4.984h.944c1.6-.161,3.2-.3,4.783-.523.809-.117,1.268-.937.809-1.493a2.784,2.784,0,0,0-1.519-.743M45.708,18.533a39.353,39.353,0,0,1,5.881-8.9A13.852,13.852,0,0,1,54.77,7.143c1.087-.646,1.81-.161,1.733,1.131a8.851,8.851,0,0,1-.5,2.456c-2.114,5.6-6.308,9.057-11.635,11.339l-.211-.143h-.02c.5-1.131.961-2.287,1.569-3.393M28.957,28.763c-.923,1.75-1.776,3.411-2.623,5.084a40.93,40.93,0,0,1-5.365,8.08,11.247,11.247,0,0,1-5.41,3.775,8,8,0,0,1-3.232.143,2.964,2.964,0,0,1-2.456-4.008,10.052,10.052,0,0,1,2.637-4.35,28.568,28.568,0,0,1,10.421-6.724c1.8-.763,3.691-1.283,5.539-1.926a3.1,3.1,0,0,1,.489-.074l0,0h.02a.146.146,0,0,0-.022,0" fill="#3088f4"/>
        </g>
      </g>
    </g>
  </g>
</svg>
