<svg id="sell_better_logo" xmlns="http://www.w3.org/2000/svg" width="120" height="33.315" viewBox="0 0 120 33.315">
  <g id="Group_89" data-name="Group 89">
    <g id="Group_87" data-name="Group 87" transform="translate(0 0.018)">
      <path id="Path_181" data-name="Path 181" d="M9.371,30.292l-3.106-.745a4.488,4.488,0,0,1-2.148-.976,1.331,1.331,0,0,1-.373-1.029,1.765,1.765,0,0,1,.71-1.4,3.5,3.5,0,0,1,2.29-.621,3.907,3.907,0,0,1,2.5.657,2.673,2.673,0,0,1,.923,1.9l.035.284h3.177l-.018-.319a5.209,5.209,0,0,0-1.775-3.869,6.855,6.855,0,0,0-4.7-1.473,8.181,8.181,0,0,0-3.372.674,4.974,4.974,0,0,0-2.236,1.952,5.114,5.114,0,0,0-.745,2.627A4.169,4.169,0,0,0,1.58,30.842,7.62,7.62,0,0,0,5.4,32.653l2.414.586a6.358,6.358,0,0,1,2.236.887,1.329,1.329,0,0,1,.586,1.136A1.917,1.917,0,0,1,9.8,36.824a4.381,4.381,0,0,1-2.7.71,5.134,5.134,0,0,1-2.272-.426,2.581,2.581,0,0,1-1.189-1.029,3.667,3.667,0,0,1-.444-1.615l-.018-.284H0l.018.337A6.918,6.918,0,0,0,.692,37.3a5.2,5.2,0,0,0,2.414,2.29,9.018,9.018,0,0,0,3.94.763c2.325,0,4.064-.586,5.165-1.722a5.544,5.544,0,0,0,1.668-3.94A3.926,3.926,0,0,0,12.9,31.96a6.879,6.879,0,0,0-3.532-1.668Z" transform="translate(0 -18.684)" fill="#fff"/>
      <path id="Path_182" data-name="Path 182" d="M174.555.1H171.2V19.535a2.36,2.36,0,0,0,2.361,2.361h3.568V18.932h-2.574V.1Z" transform="translate(-140.814 -0.1)" fill="#fff"/>
      <path id="Path_183" data-name="Path 183" d="M210.855.1H207.5V19.535a2.36,2.36,0,0,0,2.361,2.361h3.568V18.932h-2.574V.1Z" transform="translate(-170.671 -0.1)" fill="#fff"/>
      <path id="Path_184" data-name="Path 184" d="M94.317,31.391a2.351,2.351,0,0,0,.657-1.739,12.952,12.952,0,0,0-.16-1.668A8.491,8.491,0,0,0,93.5,24.771a6.369,6.369,0,0,0-2.609-2.13,8.337,8.337,0,0,0-3.479-.745,7.421,7.421,0,0,0-5.644,2.449,9.338,9.338,0,0,0-2.272,6.62,11.2,11.2,0,0,0,.905,4.561A6.893,6.893,0,0,0,83.171,38.7a8.368,8.368,0,0,0,7.863.231,7.155,7.155,0,0,0,2.609-2.272,9.077,9.077,0,0,0,1.154-2.8l.089-.39H91.566l-.089.2a4.84,4.84,0,0,1-1.633,2.361,4.4,4.4,0,0,1-2.52.674,4.277,4.277,0,0,1-2.272-.6A3.637,3.637,0,0,1,83.6,34.408a6.818,6.818,0,0,1-.515-2.307H92.56a2.206,2.206,0,0,0,1.757-.71Zm-2.751-2.13H83.153a5.016,5.016,0,0,1,1.384-3.124,3.963,3.963,0,0,1,2.946-1.207,3.838,3.838,0,0,1,2.911,1.154,5.237,5.237,0,0,1,1.171,3.177Z" transform="translate(-65.386 -18.026)" fill="#fff"/>
    </g>
    <g id="Group_88" data-name="Group 88" transform="translate(49.36)">
      <path id="Path_185" data-name="Path 185" d="M630.728,21.7h-3.568a2.36,2.36,0,0,0-2.361,2.361V39.626h3.355V24.664h2.573V21.7Z" transform="translate(-563.265 -17.848)" fill="#fff"/>
      <path id="Path_186" data-name="Path 186" d="M289.513,5.187a6.985,6.985,0,0,0-3.55-.976,5.955,5.955,0,0,0-3.195.852,5.547,5.547,0,0,0-1.3,1.118V.2H278.1V21.942h3.142v-1.9a4.985,4.985,0,0,0,1.171,1.029,6.173,6.173,0,0,0,3.266.87,6.424,6.424,0,0,0,5.023-2.254,10.319,10.319,0,0,0,2.272-6.958,11.039,11.039,0,0,0-.87-4.579,6.354,6.354,0,0,0-2.591-2.964Zm0,7.668a7.267,7.267,0,0,1-1.189,4.615,3.645,3.645,0,0,1-2.929,1.4,3.786,3.786,0,0,1-3.035-1.384,6.927,6.927,0,0,1-1.189-4.455,6.582,6.582,0,0,1,1.242-4.4,3.9,3.9,0,0,1,3.124-1.4,3.524,3.524,0,0,1,2.84,1.313,6.534,6.534,0,0,1,1.136,4.313Z" transform="translate(-278.1 -0.165)" fill="#fff"/>
      <path id="Path_187" data-name="Path 187" d="M379.135,31.291a2.351,2.351,0,0,0,.657-1.739,12.955,12.955,0,0,0-.16-1.668,8.492,8.492,0,0,0-1.313-3.213,6.369,6.369,0,0,0-2.609-2.13,8.337,8.337,0,0,0-3.479-.745,7.485,7.485,0,0,0-5.662,2.449,9.368,9.368,0,0,0-2.272,6.62,11.2,11.2,0,0,0,.905,4.561,6.8,6.8,0,0,0,2.769,3.177,7.977,7.977,0,0,0,4.171,1.1,7.872,7.872,0,0,0,3.71-.87,7.275,7.275,0,0,0,2.609-2.254,9.267,9.267,0,0,0,1.154-2.8l.089-.39h-3.319l-.089.2a5.067,5.067,0,0,1-1.615,2.361,4.363,4.363,0,0,1-2.52.692,4.277,4.277,0,0,1-2.272-.6,3.637,3.637,0,0,1-1.455-1.686,6.818,6.818,0,0,1-.515-2.307H377.4a2.346,2.346,0,0,0,1.739-.745Zm-2.733-2.13h-8.431a5.148,5.148,0,0,1,1.367-3.124,4,4,0,0,1,2.946-1.189,3.823,3.823,0,0,1,2.893,1.136,4.95,4.95,0,0,1,1.225,3.177Z" transform="translate(-348.997 -17.926)" fill="#fff"/>
      <path id="Path_188" data-name="Path 188" d="M547.717,31.291a2.351,2.351,0,0,0,.657-1.739,12.966,12.966,0,0,0-.16-1.668,8.49,8.49,0,0,0-1.313-3.213,6.369,6.369,0,0,0-2.609-2.13,8.4,8.4,0,0,0-3.479-.745,7.421,7.421,0,0,0-5.644,2.449,9.368,9.368,0,0,0-2.272,6.62,11.2,11.2,0,0,0,.905,4.561,6.893,6.893,0,0,0,2.769,3.177,7.977,7.977,0,0,0,4.171,1.1,7.872,7.872,0,0,0,3.71-.87,7.427,7.427,0,0,0,2.609-2.254,9.265,9.265,0,0,0,1.154-2.8l.089-.39h-3.337l-.089.2a4.959,4.959,0,0,1-1.633,2.361,4.4,4.4,0,0,1-2.52.692,4.277,4.277,0,0,1-2.272-.6A3.637,3.637,0,0,1,537,34.344a6.818,6.818,0,0,1-.515-2.307h9.46a2.368,2.368,0,0,0,1.775-.745Zm-2.733-2.112h-8.431a5.147,5.147,0,0,1,1.367-3.124,3.948,3.948,0,0,1,2.946-1.189A3.823,3.823,0,0,1,543.759,26a4.871,4.871,0,0,1,1.225,3.177Z" transform="translate(-487.673 -17.926)" fill="#fff"/>
      <path id="Path_189" data-name="Path 189" d="M461.41,6.745h2.574V3.9H461.41V0h-.994a2.36,2.36,0,0,0-2.361,2.361V3.9H453.92V0h-.976a2.36,2.36,0,0,0-2.361,2.361V3.9H448.4v2.84h2.183V19.4a2.371,2.371,0,0,0,2.361,2.361h3.568V18.8h-2.574V6.745h4.118V19.417a2.371,2.371,0,0,0,2.361,2.361h3.568V18.814H461.41V6.745Z" transform="translate(-418.174)" fill="#fff"/>
    </g>
    <path id="Path_190" data-name="Path 190" d="M655.323,99.9a2.023,2.023,0,1,0,2.023,2.023A2.022,2.022,0,0,0,655.323,99.9Z" transform="translate(-537.347 -82.169)" fill="#fff"/>
  </g>
  <g id="Group_93" data-name="Group 93" transform="translate(59.121 26.495)">
    <g id="Group_90" data-name="Group 90" transform="translate(0 0.093)">
      <path id="Path_191" data-name="Path 191" d="M333.1,156.42V149.8h2.272a2.869,2.869,0,0,1,1.7.444,1.57,1.57,0,0,1,.586,1.349,1.518,1.518,0,0,1-.249.816,1.715,1.715,0,0,1-.71.568,1.4,1.4,0,0,1,.834.55,1.559,1.559,0,0,1,.284.958,1.786,1.786,0,0,1-.6,1.438,2.556,2.556,0,0,1-1.722.5Zm1.136-3.834h1.136a1.256,1.256,0,0,0,.834-.248,1,1,0,0,0,.036-1.4v-.018a1.386,1.386,0,0,0-.87-.213h-1.118l-.018,1.881Zm0,.852v2.077h1.278a1.252,1.252,0,0,0,.852-.266.918.918,0,0,0,.3-.745.93.93,0,0,0-1.047-1.047l-1.384-.018Z" transform="translate(-333.1 -149.8)" fill="#fff"/>
      <path id="Path_192" data-name="Path 192" d="M367.887,153.024l1.526-3.124h1.278l-2.219,4.171v2.449h-1.154v-2.449L365.1,149.9h1.278l1.509,3.124Z" transform="translate(-359.42 -149.882)" fill="#fff"/>
    </g>
    <g id="Group_91" data-name="Group 91" transform="translate(15.211 0.093)">
      <path id="Path_193" data-name="Path 193" d="M421.995,149.8h1.136v4.65a1.931,1.931,0,0,1-.6,1.509,2.12,2.12,0,0,1-1.562.55,2.3,2.3,0,0,1-1.6-.515,1.884,1.884,0,0,1-.568-1.455h1.136a1.12,1.12,0,0,0,.266.8,1.012,1.012,0,0,0,.763.266.978.978,0,0,0,.745-.3,1.2,1.2,0,0,0,.266-.852l.018-4.65Z" transform="translate(-418.8 -149.8)" fill="#fff"/>
      <path id="Path_194" data-name="Path 194" d="M454.6,156.42V149.8h2.272a2.869,2.869,0,0,1,1.7.444,1.57,1.57,0,0,1,.586,1.349,1.518,1.518,0,0,1-.249.816,1.716,1.716,0,0,1-.71.568,1.4,1.4,0,0,1,.834.55,1.559,1.559,0,0,1,.284.958,1.785,1.785,0,0,1-.6,1.438,2.556,2.556,0,0,1-1.722.5Zm1.154-3.834h1.136a1.256,1.256,0,0,0,.834-.248.981.981,0,0,0,.036-1.384.017.017,0,0,0-.018-.018,1.386,1.386,0,0,0-.87-.213h-1.118v1.864Zm0,.852v2.077h1.278a1.253,1.253,0,0,0,.852-.266.919.919,0,0,0,.3-.745.93.93,0,0,0-1.047-1.047l-1.384-.018Z" transform="translate(-448.246 -149.8)" fill="#fff"/>
    </g>
    <g id="Group_92" data-name="Group 92" transform="translate(30.812)">
      <path id="Path_195" data-name="Path 195" d="M510.5,154.286a.809.809,0,0,0-.3-.674,4.061,4.061,0,0,0-1.1-.479,5.727,5.727,0,0,1-1.278-.532,1.691,1.691,0,0,1-.905-1.491,1.6,1.6,0,0,1,.657-1.313,2.637,2.637,0,0,1,1.686-.515,3.146,3.146,0,0,1,1.225.248,2,2,0,0,1,.852.728,1.685,1.685,0,0,1,.3,1.047h-1.154a1.083,1.083,0,0,0-.319-.816,1.251,1.251,0,0,0-.923-.284,1.355,1.355,0,0,0-.87.248.824.824,0,0,0-.32.674.692.692,0,0,0,.337.6,3.943,3.943,0,0,0,1.118.479,5.908,5.908,0,0,1,1.242.515,1.937,1.937,0,0,1,.692.674,1.686,1.686,0,0,1,.213.887,1.537,1.537,0,0,1-.639,1.313,2.8,2.8,0,0,1-1.722.5,3.279,3.279,0,0,1-1.313-.266,2.368,2.368,0,0,1-.941-.728,1.821,1.821,0,0,1-.337-1.083h1.154a1.071,1.071,0,0,0,.373.87,1.588,1.588,0,0,0,1.065.3,1.489,1.489,0,0,0,.905-.249.755.755,0,0,0,.3-.657Z" transform="translate(-506.7 -149.277)" fill="#fff"/>
      <path id="Path_196" data-name="Path 196" d="M545.277,154.976h-2.556l-.532,1.544H541l2.5-6.62h1.029l2.5,6.62h-1.207l-.55-1.544Zm-2.236-.941h1.917L544,151.284l-.958,2.751Z" transform="translate(-534.912 -149.789)" fill="#fff"/>
      <path id="Path_197" data-name="Path 197" d="M584.154,155.6h3v.923H583V149.9h1.154v5.7Z" transform="translate(-569.458 -149.789)" fill="#fff"/>
      <path id="Path_198" data-name="Path 198" d="M619.269,153.556h-2.716V155.6h3.177v.923H615.4V149.9h4.3v.923h-3.141v1.828h2.716Z" transform="translate(-596.107 -149.789)" fill="#fff"/>
      <path id="Path_199" data-name="Path 199" d="M650.8,154.286a.809.809,0,0,0-.3-.674,4.06,4.06,0,0,0-1.1-.479,5.727,5.727,0,0,1-1.278-.532,1.691,1.691,0,0,1-.905-1.491,1.6,1.6,0,0,1,.657-1.313,2.637,2.637,0,0,1,1.686-.515,3.145,3.145,0,0,1,1.225.248,2,2,0,0,1,.852.728,1.719,1.719,0,0,1,.3,1.047H650.8a1.083,1.083,0,0,0-.319-.816,1.252,1.252,0,0,0-.923-.284,1.437,1.437,0,0,0-.887.248.824.824,0,0,0-.319.674.692.692,0,0,0,.337.6,3.943,3.943,0,0,0,1.118.479,5.908,5.908,0,0,1,1.242.515,1.937,1.937,0,0,1,.692.674,1.687,1.687,0,0,1,.213.887,1.537,1.537,0,0,1-.639,1.313,2.8,2.8,0,0,1-1.722.5,3.278,3.278,0,0,1-1.313-.266,2.367,2.367,0,0,1-.941-.728A1.821,1.821,0,0,1,647,154.02h1.154a1.071,1.071,0,0,0,.373.87,1.587,1.587,0,0,0,1.065.3,1.489,1.489,0,0,0,.905-.249.755.755,0,0,0,.3-.657Z" transform="translate(-622.098 -149.277)" fill="#fff"/>
    </g>
  </g>
</svg>
