<svg id="b" xmlns="http://www.w3.org/2000/svg" width="93.68" height="26.069" viewBox="0 0 93.68 26.069">
  <path id="b-2" data-name="b" d="M1.825.021H6.741A1.624,1.624,0,0,1,8.516,1.081c.592,1.522,3.022,11.282,3.022,11.282L15.02,7.21S13.6-.013,16.092.021c3,.041,4.674,0,4.674,0s1.2-.115,1.946,1.879c.882,2.348,3.029,10.62,3.029,10.62L30.7,1.219a2.394,2.394,0,0,1,1.775-1.2c1.161,0,1.894.815,1.637,1.745-.391,1.418-8.6,23-8.6,23s-.547,1.295-1.708,1.295-1.637-.681-2.251-2.251-4.506-12.082-4.506-12.082l-5.872,13.31s-.443,1.023-1.366,1.023c-1.09,0-1.5-.476-2.047-1.5S.322,3.813.322,3.813-1.044.021,1.825.021Zm36.3,0h4.916a1.624,1.624,0,0,1,1.775,1.061C45.4,2.6,47.833,12.364,47.833,12.364L51.316,7.21S49.9-.013,52.388.021c3,.041,4.677,0,4.677,0s1.2-.115,1.946,1.879c.882,2.348,3.029,10.62,3.029,10.62L67,1.215A2.374,2.374,0,0,1,68.772.021c1.161,0,1.894.815,1.637,1.745-.391,1.418-8.6,23-8.6,23s-.547,1.295-1.708,1.295-1.637-.681-2.251-2.251-4.506-12.082-4.506-12.082l-5.872,13.31s-.443,1.023-1.366,1.023c-1.09,0-1.5-.476-2.047-1.5S36.618,3.809,36.618,3.809,35.252.017,38.121.017ZM74.447,26.065s-1.689.145-1.689-2.512V1.64S72.757,0,75.169,0H91.675a1.835,1.835,0,0,1,2,1.835,1.638,1.638,0,0,1-1.857,1.738H81.975A1.119,1.119,0,0,0,80.817,4.68v5.407H88.4s2.047,0,2.047,1.593-1.712,1.689-1.712,1.689H80.769V23.907s.119,2.158-1.284,2.158c-.967,0-5.042-.052-5.042,0Z" transform="translate(0.003 0.002)"/>
</svg>
